<svg width="140" height="140" viewBox="0 0 140 140" fill="none" xmlns="http://www.w3.org/2000/svg">
<circle cx="70" cy="70" r="70" fill="black"/>
<circle cx="70" cy="70" r="68.5" stroke="white" stroke-width="3"/>
<path d="M33.6441 45.0837L36.0282 37.0854L42.28 33L52.3132 40.0416L58.5649 37.0854L69.5894 35.3184L70.2269 35.2153L70.2473 35.2177L81.1856 37.4331L87.4351 40.3893L98.049 33.2613L103.725 37.3468L106.356 45.17L106.027 54.2975L101.009 62.1255L105.533 74.4682L101.42 94.2001L70.4106 115.5L39.5647 94.1114L35.452 74.3795L39.9752 62.0344L34.9575 54.2064L33.6441 45.0837ZM64.4061 106.809L69.5872 107.938L74.6866 107.068L79.7043 101.592L76.2495 103.153L71.7263 102.896L69.5872 101.505L67.3664 102.635L62.8386 102.896L59.3838 101.33L64.4061 106.809ZM62.8409 101.419L69.0949 100.06V98.2304L62.5982 96.6336L60.4568 91.8529L62.5982 93.9388L64.9823 93.4377L69.5872 93.5048H74.1104L76.4945 94.2001L78.6336 92.1142L76.4945 96.8949L69.9978 98.2855V100.11L76.2495 101.678L79.7043 101.244L82.5013 94.3727L82.7485 89.592L78.2253 80.1168L74.3599 77.8559L69.3422 77.1606L64.819 77.8559L60.7063 79.9418L56.0969 89.3306L56.3441 94.1114L59.1411 100.978L62.8409 101.419ZM37.0989 75.0772L41.6221 92.7232L54.6179 100.98L58.4833 102.373L55.6863 94.3727V88.8967H50.5052L46.6399 85.2452L46.3926 77.2469L48.7767 74.7271L53.9578 67.1652L59.7967 69.4261L60.704 69.8601L61.3619 78.2923L65.2273 76.9017L69.7505 76.4677L74.7682 76.9017L78.4703 78.2923L79.1281 69.5987L80.0332 69.1648L85.8721 66.9039L91.0532 74.4658L93.4373 77.2469L93.1901 85.2452L89.3247 88.8967H84.1436V94.3727L81.3466 102.373L85.212 100.98L98.2101 92.7232L102.733 75.0772L98.6184 63.4298L86.2805 42.3888L80.6049 39.1713L70.2427 36.8025L58.8848 39.0275L53.5426 42.3888L41.2047 63.4298L37.0989 75.0772Z" fill="white"/>
</svg>
